<svg width="127" height="74" viewBox="0 0 127 74" fill="none" xmlns="http://www.w3.org/2000/svg">
<path d="M0.870117 73.3698L24.1139 13.8969C27.3895 5.51602 35.4675 0 44.4655 0H58.4788L35.235 59.4729C31.9595 67.8538 23.8815 73.3698 14.8835 73.3698H0.870117Z" fill="white"/>
<path d="M34.9698 73.37L58.2136 13.8971C61.4891 5.5162 69.5671 0.000175199 78.5651 0.000175199H92.5785L69.3347 59.473C66.0591 67.854 57.9812 73.37 48.9832 73.37H34.9698Z" fill="white"/>
<path d="M69.0714 73.37L92.3152 13.8971C95.5908 5.5162 103.669 0.000175199 112.667 0.000175199H126.68L103.436 59.473C100.161 67.854 92.0828 73.37 83.0848 73.37H69.0714Z" fill="white"/>
</svg>
