<svg width="494" height="74" viewBox="0 0 494 74" fill="none" xmlns="http://www.w3.org/2000/svg">
<path d="M181.015 41.9086C181.015 36.9875 183.374 34.0887 187.891 34.0887C192.138 34.0887 193.554 37.1223 193.554 41.0322V61.9975H203.126V39.9536C203.126 31.7293 198.812 25.8644 190.318 25.8644C185.262 25.8644 181.689 27.4149 178.588 30.8529C176.566 27.752 173.128 25.8644 168.341 25.8644C163.285 25.8644 159.78 27.9542 158.162 30.9878V26.6733H149.331V61.9975H158.904V41.7063C158.904 36.9875 161.33 34.0887 165.78 34.0887C170.027 34.0887 171.442 37.1223 171.442 41.0322V61.9975H181.015V41.9086Z" fill="white"/>
<path d="M242.418 47.0993C242.418 47.0993 242.553 45.8185 242.553 44.268C242.553 33.8191 235.474 25.8644 225.025 25.8644C214.576 25.8644 207.296 33.8191 207.296 44.268C207.296 55.1214 214.644 62.8064 225.093 62.8064C233.25 62.8064 239.721 57.8853 241.811 50.7396H232.171C231.025 53.3013 228.261 54.5821 225.362 54.5821C220.576 54.5821 217.475 51.953 216.801 47.0993H242.418ZM224.958 33.5494C229.407 33.5494 232.306 36.2459 232.98 40.2233H216.936C217.745 36.1785 220.576 33.5494 224.958 33.5494Z" fill="white"/>
<path d="M243.964 34.8977H248.211V61.9975H257.784V26.6733H243.964V34.8977ZM252.997 22.0893C256.368 22.0893 258.795 19.7299 258.795 16.3592C258.795 12.9886 256.368 10.5618 252.997 10.5618C249.627 10.5618 247.2 12.9886 247.2 16.3592C247.2 19.7299 249.627 22.0893 252.997 22.0893Z" fill="white"/>
<path d="M277.605 53.7732C277.336 53.7732 276.931 53.8406 276.325 53.8406C274.167 53.8406 273.898 52.8294 273.898 51.3463V11.4381H264.325V52.0204C264.325 59.0313 267.022 62.1323 274.639 62.1323C275.92 62.1323 277.134 61.9975 277.605 61.9301V53.7732Z" fill="white"/>
<path d="M278.695 34.8977H282.942V61.9975H292.514V26.6733H278.695V34.8977ZM287.728 22.0893C291.098 22.0893 293.525 19.7299 293.525 16.3592C293.525 12.9886 291.098 10.5618 287.728 10.5618C284.357 10.5618 281.93 12.9886 281.93 16.3592C281.93 19.7299 284.357 22.0893 287.728 22.0893Z" fill="white"/>
<path d="M311.733 62.3678C321.036 62.3678 325.417 57.4467 325.417 52.256C325.417 37.8297 304.183 45.8518 304.183 36.3466C304.183 33.2456 306.812 30.6165 312.137 30.6165C317.598 30.6165 320.159 33.5827 320.564 37.2904H325.35C324.946 32.6389 321.777 26.437 312.272 26.437C304.115 26.437 299.531 31.2907 299.531 36.5488C299.531 50.6381 320.766 42.5486 320.766 52.3908C320.766 55.8288 317.53 58.1883 311.733 58.1883C305.8 58.1883 302.834 55.2221 302.497 50.8403H297.644C298.048 56.84 301.823 62.3678 311.733 62.3678Z" fill="white"/>
<path d="M363.432 45.7844C363.432 45.7844 363.499 44.7057 363.499 43.9642C363.499 34.2568 357.23 26.437 346.983 26.437C336.669 26.437 330.13 34.8635 330.13 44.3687C330.13 54.0087 336.197 62.3678 347.051 62.3678C355.208 62.3678 360.87 57.3793 362.893 50.8403H357.904C356.421 55.0199 352.376 58.0534 347.118 58.0534C339.905 58.0534 335.388 52.7278 334.916 45.7844H363.432ZM346.983 30.7514C353.724 30.7514 358.106 35.268 358.713 41.8744H335.051C335.86 35.5377 340.309 30.7514 346.983 30.7514Z" fill="white"/>
<path d="M393.213 45.245V48.4809C393.213 54.3457 388.966 58.3905 380.809 58.3905C375.753 58.3905 372.989 56.3007 372.989 51.7841C372.989 49.492 374.068 47.7393 375.753 46.7955C377.506 45.8518 379.865 45.245 393.213 45.245ZM380.27 62.3678C386.202 62.3678 390.988 60.4803 393.415 56.5704V61.5589H397.999V39.1105C397.999 31.4929 393.617 26.437 383.708 26.437C374.203 26.437 370.023 31.2233 369.147 37.3578H373.798C374.742 32.5041 378.45 30.5491 383.505 30.5491C389.977 30.5491 393.213 33.2456 393.213 39.0431V41.2677C382.359 41.2677 377.843 41.47 374.472 42.8182C370.562 44.3687 368.27 47.8067 368.27 51.9189C368.27 57.9186 372.113 62.3678 380.27 62.3678Z" fill="white"/>
<path d="M424.167 26.9763C424.167 26.9763 423.358 26.9089 423.021 26.9089C416.684 26.9089 413.313 30.2121 412.033 32.5715V27.2459H407.448V61.5589H412.235V42.0767C412.235 34.9309 416.617 31.4255 422.481 31.4255C423.358 31.4255 424.167 31.4929 424.167 31.4929V26.9763Z" fill="white"/>
<path d="M424.984 44.4361C424.984 53.8064 431.456 62.3678 441.905 62.3678C451.208 62.3678 456.601 56.1659 457.949 49.3572H453.095C451.68 54.6828 447.77 58.0534 441.905 58.0534C434.692 58.0534 429.838 52.3234 429.838 44.4361C429.838 36.4814 434.692 30.7514 441.905 30.7514C447.77 30.7514 451.68 34.122 453.095 39.4476H457.949C456.601 32.6389 451.208 26.437 441.905 26.437C431.456 26.437 424.984 34.9984 424.984 44.4361Z" fill="white"/>
<path d="M469.217 10.9995H464.43V61.5589H469.217V41.2677C469.217 34.2568 473.733 30.6165 479.531 30.6165C485.665 30.6165 488.564 34.3916 488.564 40.5936V61.5589H493.35V39.6498C493.35 32.0322 488.834 26.437 480.34 26.437C473.936 26.437 470.43 29.9424 469.217 32.0322V10.9995Z" fill="white"/>
<path d="M0 73.367L23.2438 13.8964C26.5193 5.51581 34.5973 0 43.5953 0H57.6086L34.3648 59.4706C31.0893 67.8512 23.0113 73.367 14.0134 73.367H0Z" fill="url(#paint0_linear_2047_5243)"/>
<path d="M34.0996 73.3672L57.3434 13.8966C60.6189 5.51599 68.6969 0.000175192 77.6949 0.000175192H91.7083L68.4645 59.4708C65.1889 67.8514 57.111 73.3672 48.113 73.3672H34.0996Z" fill="url(#paint1_linear_2047_5243)"/>
<path d="M68.2012 73.3672L91.445 13.8966C94.7205 5.51599 102.799 0.000175192 111.796 0.000175192H125.81L102.566 59.4708C99.2905 67.8514 91.2125 73.3672 82.2146 73.3672H68.2012Z" fill="url(#paint2_linear_2047_5243)"/>
<defs>
<linearGradient id="paint0_linear_2047_5243" x1="125.81" y1="-5.60397" x2="5.87459e-07" y2="65.4718" gradientUnits="userSpaceOnUse">
<stop stop-color="#FF5CAA"/>
<stop offset="1" stop-color="#FF4E62"/>
</linearGradient>
<linearGradient id="paint1_linear_2047_5243" x1="125.81" y1="-5.60397" x2="5.87459e-07" y2="65.4718" gradientUnits="userSpaceOnUse">
<stop stop-color="#FF5CAA"/>
<stop offset="1" stop-color="#FF4E62"/>
</linearGradient>
<linearGradient id="paint2_linear_2047_5243" x1="125.81" y1="-5.60397" x2="5.87459e-07" y2="65.4718" gradientUnits="userSpaceOnUse">
<stop stop-color="#FF5CAA"/>
<stop offset="1" stop-color="#FF4E62"/>
</linearGradient>
</defs>
</svg>
