<svg width="127" height="74" viewBox="0 0 127 74" fill="none" xmlns="http://www.w3.org/2000/svg">
<path d="M0.944336 73.3698L24.1882 13.8969C27.4637 5.51602 35.5417 0 44.5397 0H58.553L35.3092 59.4729C32.0337 67.8538 23.9557 73.3698 14.9577 73.3698H0.944336Z" fill="#21004B"/>
<path d="M35.044 73.37L58.2878 13.8971C61.5634 5.5162 69.6413 0.000175199 78.6393 0.000175199H92.6527L69.4089 59.473C66.1334 67.854 58.0554 73.37 49.0574 73.37H35.044Z" fill="#21004B"/>
<path d="M69.1456 73.37L92.3895 13.8971C95.665 5.5162 103.743 0.000175199 112.741 0.000175199H126.754L103.511 59.473C100.235 67.854 92.157 73.37 83.159 73.37H69.1456Z" fill="#21004B"/>
</svg>
