<svg width="494" height="74" viewBox="0 0 494 74" fill="none" xmlns="http://www.w3.org/2000/svg">
<path d="M181.19 42.5277C181.19 37.6066 183.549 34.7079 188.066 34.7079C192.313 34.7079 193.728 37.7414 193.728 41.6514V62.6166H203.301V40.5728C203.301 32.3484 198.987 26.4835 190.493 26.4835C185.437 26.4835 181.864 28.034 178.763 31.4721C176.741 28.3711 173.302 26.4835 168.516 26.4835C163.46 26.4835 159.955 28.5733 158.337 31.6069V27.2925H149.506V62.6166H159.078V42.3255C159.078 37.6066 161.505 34.7079 165.955 34.7079C170.201 34.7079 171.617 37.7414 171.617 41.6514V62.6166H181.19V42.5277Z" fill="#21004B"/>
<path d="M242.592 47.7185C242.592 47.7185 242.727 46.4376 242.727 44.8872C242.727 34.4382 235.649 26.4835 225.2 26.4835C214.751 26.4835 207.471 34.4382 207.471 44.8872C207.471 55.7406 214.819 63.4256 225.267 63.4256C233.424 63.4256 239.896 58.5045 241.986 51.3587H232.346C231.2 53.9204 228.436 55.2013 225.537 55.2013C220.751 55.2013 217.65 52.5722 216.976 47.7185H242.592ZM225.133 34.1686C229.582 34.1686 232.481 36.8651 233.155 40.8424H217.111C217.92 36.7977 220.751 34.1686 225.133 34.1686Z" fill="#21004B"/>
<path d="M244.139 35.5168H248.386V62.6166H257.958V27.2925H244.139V35.5168ZM253.172 22.7084C256.543 22.7084 258.97 20.349 258.97 16.9784C258.97 13.6078 256.543 11.1809 253.172 11.1809C249.801 11.1809 247.375 13.6078 247.375 16.9784C247.375 20.349 249.801 22.7084 253.172 22.7084Z" fill="#21004B"/>
<path d="M277.78 54.3923C277.511 54.3923 277.106 54.4597 276.499 54.4597C274.342 54.4597 274.073 53.4485 274.073 51.9655V12.0573H264.5V52.6396C264.5 59.6505 267.196 62.7515 274.814 62.7515C276.095 62.7515 277.308 62.6166 277.78 62.5492V54.3923Z" fill="#21004B"/>
<path d="M278.869 35.5168H283.116V62.6166H292.689V27.2925H278.869V35.5168ZM287.903 22.7084C291.273 22.7084 293.7 20.349 293.7 16.9784C293.7 13.6078 291.273 11.1809 287.903 11.1809C284.532 11.1809 282.105 13.6078 282.105 16.9784C282.105 20.349 284.532 22.7084 287.903 22.7084Z" fill="#21004B"/>
<path d="M311.908 62.987C321.21 62.987 325.592 58.0659 325.592 52.8751C325.592 38.4488 304.357 46.4709 304.357 36.9657C304.357 33.8648 306.986 31.2357 312.312 31.2357C317.772 31.2357 320.334 34.2018 320.739 37.9095H325.525C325.12 33.2581 321.952 27.0561 312.447 27.0561C304.29 27.0561 299.706 31.9098 299.706 37.168C299.706 51.2572 320.941 43.1677 320.941 53.0099C320.941 56.4479 317.705 58.8074 311.908 58.8074C305.975 58.8074 303.009 55.8412 302.672 51.4594H297.818C298.223 57.4591 301.998 62.987 311.908 62.987Z" fill="#21004B"/>
<path d="M363.607 46.4035C363.607 46.4035 363.674 45.3249 363.674 44.5834C363.674 34.876 357.405 27.0561 347.158 27.0561C336.844 27.0561 330.305 35.4827 330.305 44.9878C330.305 54.6278 336.372 62.987 347.225 62.987C355.382 62.987 361.045 57.9984 363.067 51.4594H358.079C356.596 55.639 352.551 58.6726 347.293 58.6726C340.08 58.6726 335.563 53.347 335.091 46.4035H363.607ZM347.158 31.3705C353.899 31.3705 358.281 35.8871 358.888 42.4936H335.226C336.035 36.1568 340.484 31.3705 347.158 31.3705Z" fill="#21004B"/>
<path d="M393.388 45.8642V49.1C393.388 54.9649 389.141 59.0096 380.984 59.0096C375.928 59.0096 373.164 56.9198 373.164 52.4032C373.164 50.1112 374.243 48.3585 375.928 47.4147C377.681 46.4709 380.04 45.8642 393.388 45.8642ZM380.444 62.987C386.377 62.987 391.163 61.0994 393.59 57.1895V62.178H398.174V39.7297C398.174 32.112 393.792 27.0561 383.883 27.0561C374.377 27.0561 370.198 31.8424 369.321 37.9769H373.973C374.917 33.1232 378.624 31.1683 383.68 31.1683C390.152 31.1683 393.388 33.8648 393.388 39.6622V41.8869C382.534 41.8869 378.018 42.0891 374.647 43.4373C370.737 44.9878 368.445 48.4259 368.445 52.538C368.445 58.5377 372.288 62.987 380.444 62.987Z" fill="#21004B"/>
<path d="M424.342 27.5954C424.342 27.5954 423.533 27.528 423.196 27.528C416.859 27.528 413.488 30.8312 412.207 33.1906V27.8651H407.623V62.178H412.41V42.6958C412.41 35.5501 416.791 32.0446 422.656 32.0446C423.533 32.0446 424.342 32.112 424.342 32.112V27.5954Z" fill="#21004B"/>
<path d="M425.159 45.0552C425.159 54.4256 431.631 62.987 442.079 62.987C451.382 62.987 456.775 56.785 458.124 49.9764H453.27C451.854 55.3019 447.944 58.6726 442.079 58.6726C434.866 58.6726 430.013 52.9425 430.013 45.0552C430.013 37.1006 434.866 31.3705 442.079 31.3705C447.944 31.3705 451.854 34.7411 453.27 40.0667H458.124C456.775 33.2581 451.382 27.0561 442.079 27.0561C431.631 27.0561 425.159 35.6175 425.159 45.0552Z" fill="#21004B"/>
<path d="M469.392 11.6187H464.605V62.178H469.392V41.8869C469.392 34.876 473.908 31.2357 479.706 31.2357C485.84 31.2357 488.739 35.0108 488.739 41.2127V62.178H493.525V40.269C493.525 32.6513 489.009 27.0561 480.515 27.0561C474.11 27.0561 470.605 30.5616 469.392 32.6513V11.6187Z" fill="#21004B"/>
<path d="M0.174805 73.9862L23.4186 14.5156C26.6941 6.13496 34.7721 0.619141 43.7701 0.619141H57.7834L34.5396 60.0898C31.2641 68.4704 23.1861 73.9862 14.1882 73.9862H0.174805Z" fill="#21004B"/>
<path d="M34.2744 73.9864L57.5182 14.5157C60.7938 6.13513 68.8717 0.619316 77.8697 0.619316H91.8831L68.6393 60.0899C65.3638 68.4705 57.2858 73.9864 48.2878 73.9864H34.2744Z" fill="#21004B"/>
<path d="M68.376 73.9864L91.6198 14.5157C94.8953 6.13513 102.973 0.619316 111.971 0.619316H125.985L102.741 60.0899C99.4653 68.4705 91.3874 73.9864 82.3894 73.9864H68.376Z" fill="#21004B"/>
</svg>
