<svg width="264" height="190" viewBox="0 0 264 190" fill="none" xmlns="http://www.w3.org/2000/svg">
<path d="M24.3128 173.858C24.3128 170.082 26.1233 167.857 29.5892 167.857C32.8481 167.857 33.9344 170.185 33.9344 173.185V189.273H41.28V172.358C41.28 166.047 37.9693 161.546 31.4514 161.546C27.5717 161.546 24.8301 162.736 22.4505 165.374C20.8986 162.995 18.2604 161.546 14.5877 161.546C10.708 161.546 8.01804 163.15 6.77654 165.478V162.167H0V189.273H7.34556V173.703C7.34556 170.082 9.20782 167.857 12.622 167.857C15.8809 167.857 16.9672 170.185 16.9672 173.185V189.273H24.3128V173.858Z" fill="white"/>
<path d="M71.4305 177.841C71.4305 177.841 71.534 176.858 71.534 175.668C71.534 167.65 66.1024 161.546 58.0843 161.546C50.0663 161.546 44.4795 167.65 44.4795 175.668C44.4795 183.997 50.118 189.894 58.1361 189.894C64.3953 189.894 69.3613 186.118 70.9649 180.634H63.5676C62.6882 182.6 60.5673 183.583 58.343 183.583C54.6702 183.583 52.2907 181.566 51.7734 177.841H71.4305ZM58.0326 167.443C61.4467 167.443 63.6711 169.513 64.1884 172.565H51.8768C52.4976 169.461 54.6702 167.443 58.0326 167.443Z" fill="white"/>
<path d="M72.617 168.478H75.876V189.273H83.2215V162.167H72.617V168.478ZM79.5488 158.649C82.1352 158.649 83.9975 156.839 83.9975 154.252C83.9975 151.666 82.1352 149.804 79.5488 149.804C76.9623 149.804 75.1001 151.666 75.1001 154.252C75.1001 156.839 76.9623 158.649 79.5488 158.649Z" fill="white"/>
<path d="M98.432 182.962C98.2251 182.962 97.9147 183.014 97.4491 183.014C95.7938 183.014 95.5869 182.238 95.5869 181.1V150.476H88.2413V181.617C88.2413 186.997 90.3105 189.377 96.1559 189.377C97.1387 189.377 98.0699 189.273 98.432 189.221V182.962Z" fill="white"/>
<path d="M99.2677 168.478H102.527V189.273H109.872V162.167H99.2677V168.478ZM106.199 158.649C108.786 158.649 110.648 156.839 110.648 154.252C110.648 151.666 108.786 149.804 106.199 149.804C103.613 149.804 101.751 151.666 101.751 154.252C101.751 156.839 103.613 158.649 106.199 158.649Z" fill="white"/>
<path d="M124.619 189.557C131.758 189.557 135.12 185.781 135.12 181.798C135.12 170.727 118.825 176.883 118.825 169.589C118.825 167.21 120.843 165.192 124.929 165.192C129.12 165.192 131.085 167.468 131.396 170.314H135.068C134.758 166.744 132.327 161.985 125.033 161.985C118.774 161.985 115.256 165.71 115.256 169.745C115.256 180.556 131.551 174.348 131.551 181.901C131.551 184.539 129.068 186.35 124.619 186.35C120.067 186.35 117.791 184.074 117.532 180.711H113.808C114.118 185.315 117.015 189.557 124.619 189.557Z" fill="white"/>
<path d="M164.291 176.831C164.291 176.831 164.342 176.004 164.342 175.435C164.342 167.986 159.531 161.985 151.669 161.985C143.754 161.985 138.736 168.451 138.736 175.745C138.736 183.142 143.392 189.557 151.72 189.557C157.98 189.557 162.325 185.729 163.877 180.711H160.049C158.911 183.918 155.807 186.246 151.772 186.246C146.237 186.246 142.771 182.16 142.409 176.831H164.291ZM151.669 165.296C156.842 165.296 160.204 168.762 160.67 173.831H142.513C143.133 168.969 146.547 165.296 151.669 165.296Z" fill="white"/>
<path d="M187.143 176.418V178.901C187.143 183.401 183.884 186.505 177.625 186.505C173.745 186.505 171.624 184.901 171.624 181.435C171.624 179.677 172.452 178.332 173.745 177.607C175.09 176.883 176.901 176.418 187.143 176.418ZM177.211 189.557C181.763 189.557 185.436 188.108 187.298 185.108V188.936H190.816V171.71C190.816 165.865 187.454 161.985 179.849 161.985C172.556 161.985 169.348 165.658 168.676 170.365H172.245C172.969 166.641 175.814 165.141 179.694 165.141C184.66 165.141 187.143 167.21 187.143 171.659V173.366C178.815 173.366 175.349 173.521 172.762 174.555C169.762 175.745 168.003 178.383 168.003 181.539C168.003 186.143 170.952 189.557 177.211 189.557Z" fill="white"/>
<path d="M210.896 162.399C210.896 162.399 210.275 162.347 210.016 162.347C205.154 162.347 202.567 164.882 201.585 166.693V162.606H198.067V188.936H201.74V173.986C201.74 168.503 205.102 165.813 209.603 165.813C210.275 165.813 210.896 165.865 210.896 165.865V162.399Z" fill="white"/>
<path d="M211.523 175.797C211.523 182.987 216.489 189.557 224.507 189.557C231.646 189.557 235.784 184.798 236.819 179.573H233.094C232.008 183.66 229.008 186.246 224.507 186.246C218.972 186.246 215.248 181.849 215.248 175.797C215.248 169.693 218.972 165.296 224.507 165.296C229.008 165.296 232.008 167.882 233.094 171.969H236.819C235.784 166.744 231.646 161.985 224.507 161.985C216.489 161.985 211.523 168.555 211.523 175.797Z" fill="white"/>
<path d="M245.465 150.139H241.792V188.936H245.465V173.366C245.465 167.986 248.931 165.192 253.38 165.192C258.087 165.192 260.312 168.089 260.312 172.848V188.936H263.984V172.124C263.984 166.279 260.518 161.985 254.001 161.985C249.086 161.985 246.396 164.675 245.465 166.279V150.139Z" fill="white"/>
<path d="M34.8799 116.81L71.8872 22.125C77.1023 8.78194 89.9636 0 104.29 0H126.601L89.5934 94.6854C84.3784 108.029 71.5171 116.81 57.1911 116.81H34.8799Z" fill="url(#paint0_linear_2047_5263)"/>
<path d="M89.1712 116.811L126.179 22.1253C131.394 8.78222 144.255 0.00027893 158.581 0.00027893H180.892L143.885 94.6857C138.67 108.029 125.808 116.811 111.482 116.811H89.1712Z" fill="url(#paint1_linear_2047_5263)"/>
<path d="M143.466 116.811L180.473 22.1253C185.688 8.78222 198.549 0.00027893 212.875 0.00027893H235.187L198.179 94.6857C192.964 108.029 180.103 116.811 165.777 116.811H143.466Z" fill="url(#paint2_linear_2047_5263)"/>
<defs>
<linearGradient id="paint0_linear_2047_5263" x1="235.187" y1="-8.92229" x2="34.8799" y2="104.24" gradientUnits="userSpaceOnUse">
<stop stop-color="#FF5CAA"/>
<stop offset="1" stop-color="#FF4E62"/>
</linearGradient>
<linearGradient id="paint1_linear_2047_5263" x1="235.187" y1="-8.92229" x2="34.8799" y2="104.24" gradientUnits="userSpaceOnUse">
<stop stop-color="#FF5CAA"/>
<stop offset="1" stop-color="#FF4E62"/>
</linearGradient>
<linearGradient id="paint2_linear_2047_5263" x1="235.187" y1="-8.92229" x2="34.8799" y2="104.24" gradientUnits="userSpaceOnUse">
<stop stop-color="#FF5CAA"/>
<stop offset="1" stop-color="#FF4E62"/>
</linearGradient>
</defs>
</svg>
