<svg width="536" height="82" viewBox="0 0 536 82" fill="none" xmlns="http://www.w3.org/2000/svg">
<path d="M49.3633 48.8382C49.3633 41.1712 53.0394 36.6549 60.0763 36.6549C66.693 36.6549 68.8986 41.3812 68.8986 47.4729V80.1367H83.8127V45.7924C83.8127 32.9789 77.0909 23.8415 63.8573 23.8415C55.9801 23.8415 50.4136 26.2571 45.5823 31.6136C42.4315 26.7823 37.075 23.8415 29.618 23.8415C21.7409 23.8415 16.2794 27.0974 13.7587 31.8236V25.1018H0V80.1367H14.914V48.5232C14.914 41.1712 18.6951 36.6549 25.6269 36.6549C32.2437 36.6549 34.4493 41.3812 34.4493 47.4729V80.1367H49.3633V48.8382Z" fill="#21004B"/>
<path d="M145.029 56.9254C145.029 56.9254 145.239 54.9299 145.239 52.5142C145.239 36.2348 134.211 23.8415 117.931 23.8415C101.652 23.8415 90.3088 36.2348 90.3088 52.5142C90.3088 69.4238 101.757 81.3971 118.036 81.3971C130.745 81.3971 140.828 73.73 144.083 62.597H129.064C127.279 66.5881 122.973 68.5836 118.456 68.5836C110.999 68.5836 106.168 64.4875 105.118 56.9254H145.029ZM117.826 35.8147C124.758 35.8147 129.274 40.0159 130.325 46.2125H105.328C106.588 39.9108 110.999 35.8147 117.826 35.8147Z" fill="#21004B"/>
<path d="M147.438 37.9153H154.055V80.1367H168.969V25.1018H147.438V37.9153ZM161.512 17.9599C166.763 17.9599 170.544 14.2839 170.544 9.03245C170.544 3.78102 166.763 0 161.512 0C156.26 0 152.479 3.78102 152.479 9.03245C152.479 14.2839 156.26 17.9599 161.512 17.9599Z" fill="#21004B"/>
<path d="M199.851 67.3233C199.431 67.3233 198.801 67.4283 197.855 67.4283C194.495 67.4283 194.074 65.8529 194.074 63.5422V1.36537H179.16V64.5925C179.16 75.5155 183.362 80.3468 195.23 80.3468C197.225 80.3468 199.116 80.1367 199.851 80.0317V67.3233Z" fill="#21004B"/>
<path d="M201.548 37.9153H208.165V80.1367H223.079V25.1018H201.548V37.9153ZM215.622 17.9599C220.873 17.9599 224.654 14.2839 224.654 9.03245C224.654 3.78102 220.873 0 215.622 0C210.37 0 206.589 3.78102 206.589 9.03245C206.589 14.2839 210.37 17.9599 215.622 17.9599Z" fill="#21004B"/>
<path d="M253.021 80.7159C267.515 80.7159 274.342 73.0489 274.342 64.9617C274.342 42.4856 241.258 54.984 241.258 40.175C241.258 35.3437 245.354 31.2476 253.651 31.2476C262.159 31.2476 266.15 35.8688 266.78 41.6454H274.237C273.607 34.3984 268.67 24.7358 253.861 24.7358C241.153 24.7358 234.011 32.2979 234.011 40.4901C234.011 62.441 267.095 49.8376 267.095 65.1717C267.095 70.5282 262.054 74.2042 253.021 74.2042C243.779 74.2042 239.158 69.5829 238.632 62.7561H231.07C231.7 72.1036 237.582 80.7159 253.021 80.7159Z" fill="#21004B"/>
<path d="M333.568 54.879C333.568 54.879 333.673 53.1985 333.673 52.0432C333.673 36.9191 323.906 24.7358 307.941 24.7358C291.872 24.7358 281.684 37.8644 281.684 52.6734C281.684 67.6924 291.137 80.7159 308.046 80.7159C320.755 80.7159 329.577 72.9438 332.728 62.7561H324.956C322.645 69.2679 316.344 73.9941 308.151 73.9941C296.913 73.9941 289.876 65.6969 289.141 54.879H333.568ZM307.941 31.4576C318.444 31.4576 325.271 38.4945 326.216 48.7873H289.351C290.612 38.9147 297.543 31.4576 307.941 31.4576Z" fill="#21004B"/>
<path d="M379.967 54.0387V59.0801C379.967 68.2176 373.35 74.5193 360.642 74.5193C352.765 74.5193 348.458 71.2634 348.458 64.2265C348.458 60.6555 350.139 57.9248 352.765 56.4544C355.495 54.984 359.171 54.0387 379.967 54.0387ZM359.801 80.7159C369.044 80.7159 376.501 77.7751 380.282 71.6835V79.4556H387.424V44.4812C387.424 32.613 380.597 24.7358 365.158 24.7358C350.349 24.7358 343.837 32.1928 342.472 41.7504H349.719C351.189 34.1884 356.966 31.1426 364.843 31.1426C374.926 31.1426 379.967 35.3437 379.967 44.3761V47.8421C363.057 47.8421 356.02 48.1572 350.769 50.2577C344.677 52.6734 341.106 58.0298 341.106 64.4366C341.106 73.7841 347.093 80.7159 359.801 80.7159Z" fill="#21004B"/>
<path d="M428.193 25.5761C428.193 25.5761 426.933 25.471 426.408 25.471C416.535 25.471 411.283 30.6174 409.288 34.2934V25.9962H402.146V79.4556H409.603V49.1024C409.603 37.9694 416.43 32.5079 425.567 32.5079C426.933 32.5079 428.193 32.613 428.193 32.613V25.5761Z" fill="#21004B"/>
<path d="M429.466 52.7784C429.466 67.3773 439.549 80.7159 455.829 80.7159C470.323 80.7159 478.725 71.0533 480.825 60.4455H473.263C471.058 68.7427 464.966 73.9941 455.829 73.9941C444.591 73.9941 437.029 65.0667 437.029 52.7784C437.029 40.385 444.591 31.4576 455.829 31.4576C464.966 31.4576 471.058 36.7091 473.263 45.0063H480.825C478.725 34.3984 470.323 24.7358 455.829 24.7358C439.549 24.7358 429.466 38.0744 429.466 52.7784Z" fill="#21004B"/>
<path d="M498.381 0.684326H490.924V79.4556H498.381V47.8421C498.381 36.9191 505.418 31.2476 514.45 31.2476C524.008 31.2476 528.524 37.1292 528.524 46.7918V79.4556H535.981V45.3214C535.981 33.4532 528.944 24.7358 515.71 24.7358C505.733 24.7358 500.271 30.1973 498.381 33.4532V0.684326Z" fill="#21004B"/>
</svg>
